<svg xmlns:dc="http://purl.org/dc/elements/1.1/" xmlns:cc="http://creativecommons.org/ns#" xmlns:rdf="http://www.w3.org/1999/02/22-rdf-syntax-ns#" xmlns:svg="http://www.w3.org/2000/svg" xmlns="http://www.w3.org/2000/svg" version="1.1" viewBox="0 0 100.00001 125" xml:space="preserve" x="0px" y="0px"><path d="m 17.78125,32.6875 c -0.565014,0 -1.03125,0.466236 -1.03125,1.03125 l 0,5.78125 c -1.116245,0.101344 -2.759931,0.629904 -2.96875,2.53125 -0.148613,2.264385 1.018764,6.878469 4,6.96875 2.981254,-0.09028 4.117194,-4.704384 3.96875,-6.96875 -0.02284,-0.206756 -0.07028,-0.387243 -0.125,-0.5625 l 14.1875,0 c 0.321977,0.68678 0.671336,1.375085 1,2.0625 -4.463326,2.754093 -7.4375,7.671764 -7.4375,13.3125 l 0,6.46875 c 0,0.463951 0.3798,0.84375 0.84375,0.84375 0.463932,0 0.84375,-0.379799 0.84375,-0.84375 l 0,-6.46875 c 0,-4.97689 2.554717,-9.308687 6.4375,-11.78125 0.150154,0.326107 0.325031,0.64092 0.46875,0.96875 0.180769,0.411394 0.698868,0.6875 1.125,0.6875 l 6.625,0 C 46.813414,47.80507 48.33556,48.5 50,48.5 c 1.664271,0 3.186774,-0.694912 4.28125,-1.78125 l 6.625,0 c 0.42645,0 0.975518,-0.276125 1.15625,-0.6875 0.142701,-0.325522 0.289374,-0.644931 0.4375,-0.96875 3.882769,2.472563 6.4375,6.80436 6.4375,11.78125 l 0,6.46875 c 0,0.463951 0.379818,0.84375 0.84375,0.84375 0.46395,0 0.84375,-0.379799 0.84375,-0.84375 l 0,-6.46875 c 0,-5.640736 -2.974171,-10.558407 -7.4375,-13.3125 0.32572,-0.687413 0.678023,-1.37572 1,-2.0625 6.558195,0 8.166362,-3.7e-5 14.1875,0 -0.05471,0.175257 -0.102165,0.355744 -0.125,0.5625 -0.148444,2.264366 0.987477,6.878469 3.96875,6.96875 2.981216,-0.09028 4.148612,-4.704365 4,-6.96875 C 86.009931,40.129904 84.366245,39.601344 83.25,39.5 l 0,-5.78125 c 0,-0.565014 -0.466256,-1.03125 -1.03125,-1.03125 -0.565032,0 -1,0.466236 -1,1.03125 l 0,5.75 c -8.691873,-0.0092 -12.243679,1.12e-4 -20,0 -0.099,-0.395382 -0.18075,-0.784674 -0.28125,-1.1875 -0.08985,-0.359869 -0.441587,-0.624437 -0.8125,-0.625 l -20.25,0 c -0.364313,0.009 -0.724318,0.271413 -0.8125,0.625 -0.101531,0.404251 -0.182569,0.792718 -0.28125,1.1875 -6.994565,0 -14.583682,-0.0054 -20,0 l 0,-5.75 c 0,-0.565014 -0.434968,-1.03125 -1,-1.03125 z M 8.875,34.875 c -1.1989702,-0.0021 -2.1175181,0.125868 -2.6875,0.28125 -2.8792535,0.816076 0.017275,2.217094 2.84375,2.53125 2.192684,0.166875 4.384572,0.03063 6.5625,-0.3125 -0.02259,-0.57932 -0.05849,-1.172631 -0.0625,-1.75 -0.649876,-0.0098 -1.425605,-0.09332 -2.3125,-0.28125 C 11.542854,34.988831 10.074027,34.875 8.875,34.875 z m 15.53125,0 c -1.480708,0.01995 -2.96418,0.175812 -4.4375,0.40625 -0.01256,0.06176 -0.0155,0.127894 -0.03125,0.1875 -0.03707,0.500438 6.9e-4,1.002987 0.03125,1.53125 0.664313,0.0071 1.426499,0.08672 2.34375,0.28125 3.351792,0.709839 5.891867,0.498394 7.03125,0.1875 2.87946,-0.816339 0.01395,-2.216924 -2.8125,-2.53125 -0.493407,-0.0378 -0.975756,-0.05744 -1.46875,-0.0625 -0.21165,-0.0024 -0.444731,-0.003 -0.65625,0 z m 50.53125,0 c -0.492994,0.0051 -0.975362,0.02463 -1.46875,0.0625 -2.826491,0.314326 -5.691942,1.71493 -2.8125,2.53125 1.139382,0.310894 3.679477,0.522339 7.03125,-0.1875 0.917251,-0.194531 1.679455,-0.2742 2.34375,-0.28125 0.03069,-0.528263 0.06839,-1.030812 0.03125,-1.53125 -0.01575,-0.05961 -0.01867,-0.125737 -0.03125,-0.1875 C 78.347479,35.017887 76.630665,34.854469 74.9375,34.875 z m 15.21875,0 c -0.997739,0.0534 -2.118092,0.202561 -3.375,0.46875 -0.886932,0.187932 -1.662605,0.271594 -2.3125,0.28125 -0.0039,0.577369 -0.03989,1.17068 -0.0625,1.75 2.177928,0.343013 4.369816,0.479375 6.5625,0.3125 2.826679,-0.314156 5.723023,-1.715174 2.84375,-2.53125 -0.569982,-0.155382 -1.488511,-0.282788 -2.6875,-0.28125 -0.299756,0 -0.63617,-0.0178 -0.96875,0 z m -34.75,16.40625 c -0.2238,-0.01613 -0.449984,0.07598 -0.65625,0.28125 -2.648602,2.635973 -6.937863,2.659332 -9.625,0.0625 -0.836984,-0.808921 -2.08777,0.471565 -1.25,1.28125 3.394097,3.280088 8.81075,3.235739 12.15625,-0.09375 0.619432,-0.616457 0.0464,-1.482844 -0.625,-1.53125 z M 59.21875,55.5 c -0.22339,-0.01573 -0.450746,0.04386 -0.65625,0.25 -2.281959,2.289152 -5.329864,3.58355 -8.5625,3.625 -3.219252,0.04128 -6.3282,-1.262905 -8.625,-3.5 -0.833993,-0.812583 -2.115865,0.499614 -1.28125,1.3125 2.652054,2.583311 6.203388,4.006988 9.90625,4 3.687064,-0.007 7.251162,-1.555449 9.84375,-4.15625 0.616859,-0.61876 0.04517,-1.48405 -0.625,-1.53125 z m 5.3125,3.875 c -0.223163,-0.01552 -0.482425,0.07465 -0.6875,0.28125 -3.412426,3.437646 -7.972168,5.524308 -12.8125,5.8125 -4.76266,0.283448 -9.5751,-1.217608 -13.3125,-4.1875 -0.558367,-0.44372 -1.08412,-0.938853 -1.59375,-1.4375 -0.832456,-0.814143 -2.082697,0.497972 -1.25,1.3125 3.606908,3.528207 8.29223,5.627416 13.3125,6.0625 4.867776,0.421736 9.865682,-0.941953 13.875,-3.71875 1.104653,-0.765168 2.147375,-1.640347 3.09375,-2.59375 0.615455,-0.620025 0.04449,-1.484705 -0.625,-1.53125 z" transform="translate(0,-5e-6)" style="" fill="#000000" fill-opacity="1"/></svg>